<?xml version="1.0" standalone="no"?>
<!DOCTYPE svg PUBLIC "-//W3C//DTD SVG 20010904//EN"
 "http://www.w3.org/TR/2001/REC-SVG-20010904/DTD/svg10.dtd">
<svg version="1.0" xmlns="http://www.w3.org/2000/svg"
 width="512.000000pt" height="512.000000pt" viewBox="0 0 512.000000 512.000000"
 preserveAspectRatio="xMidYMid meet">
<metadata>
Created by potrace 1.11, written by Peter Selinger 2001-2013
</metadata>
<g transform="translate(0.000000,512.000000) scale(0.100000,-0.100000)"
fill="#000000" stroke="none">
<path d="M2379 5116 c-2 -2 -39 -6 -81 -10 -43 -4 -83 -8 -90 -11 -7 -2 -31
-6 -53 -9 -68 -8 -185 -35 -290 -65 -736 -212 -1346 -748 -1645 -1444 -84
-198 -161 -468 -185 -649 -16 -131 -20 -196 -20 -368 0 -312 31 -512 121 -793
276 -854 1007 -1518 1879 -1707 205 -44 354 -58 595 -55 249 3 423 26 637 86
887 246 1573 944 1804 1834 54 206 66 323 67 625 1 275 -8 394 -37 515 -6 22
-12 54 -15 70 -3 17 -21 82 -39 145 -258 873 -954 1542 -1837 1765 -93 23
-227 47 -364 63 -65 8 -440 14 -447 8z m398 -131 c455 -43 854 -190 1213 -449
640 -460 1017 -1199 1013 -1986 0 -97 -10 -256 -17 -297 -2 -10 -7 -40 -10
-68 -4 -27 -9 -57 -11 -65 -2 -8 -6 -26 -9 -40 -19 -114 -96 -370 -130 -435
-9 -17 -16 -34 -16 -39 0 -16 -119 -244 -170 -326 -374 -604 -1011 -1026
-1699 -1126 -25 -4 -54 -8 -64 -10 -144 -26 -528 -20 -687 11 -14 2 -41 7 -60
10 -99 16 -324 78 -416 116 -16 6 -38 15 -49 20 -296 119 -532 272 -794 514
-59 55 -196 213 -265 308 -227 309 -397 720 -442 1067 -3 25 -7 52 -9 60 -10
36 -18 206 -18 335 1 144 16 301 38 415 3 14 8 39 11 55 8 47 53 214 76 280
122 355 314 667 563 920 82 82 121 119 211 195 295 251 776 464 1159 516 28 3
59 8 70 10 11 2 70 7 130 10 61 4 111 8 112 9 5 3 208 -4 270 -10z"/>
<path d="M2487 4704 c-1 -1 -42 -4 -92 -8 -175 -14 -330 -45 -500 -101 -617
-205 -1120 -692 -1338 -1300 -33 -91 -71 -218 -83 -277 -57 -290 -63 -532 -19
-804 131 -819 743 -1502 1538 -1719 279 -76 625 -100 872 -60 460 74 845 257
1164 553 59 55 59 63 1 115 l-31 28 -72 -64 c-332 -296 -707 -464 -1147 -514
-81 -10 -345 -9 -425 0 -548 65 -1024 327 -1361 747 -109 137 -234 344 -284
475 -71 182 -119 357 -140 515 -26 191 -17 497 20 665 7 28 14 61 16 75 19 94
98 310 160 433 309 614 909 1031 1587 1104 133 14 410 8 522 -12 17 -3 56 -10
87 -16 272 -47 581 -185 816 -364 92 -70 114 -88 188 -157 l30 -28 33 27 c59
49 59 59 -1 115 -240 224 -570 409 -881 492 -100 27 -225 54 -285 61 -126 14
-365 27 -375 19z"/>
<path d="M2438 4284 c-2 -1 -32 -5 -68 -8 -54 -5 -161 -26 -267 -51 -61 -15
-209 -73 -297 -117 -349 -174 -607 -432 -785 -785 -54 -107 -124 -306 -136
-383 -4 -25 -8 -48 -11 -51 -22 -36 -38 -379 -23 -499 16 -132 19 -148 38
-231 144 -618 639 -1119 1259 -1273 53 -13 117 -27 142 -31 25 -4 58 -9 74
-11 16 -3 68 -7 117 -9 l89 -4 0 64 0 65 -62 1 c-262 5 -540 90 -783 239 -371
228 -635 610 -727 1048 -27 132 -33 417 -12 557 40 253 155 523 313 730 53 70
206 226 271 277 182 143 380 240 603 298 160 41 228 50 397 50 156 -1 232 -9
367 -41 523 -124 958 -510 1137 -1009 37 -101 74 -251 82 -330 4 -36 8 -72 10
-80 1 -8 3 -43 3 -77 l1 -63 65 0 65 0 -5 88 c-4 80 -11 146 -20 192 -2 9 -6
35 -9 56 -27 167 -131 425 -243 599 -274 426 -729 712 -1238 781 -49 6 -342
14 -347 8z"/>
<path d="M2380 3859 c-264 -52 -453 -135 -629 -276 -199 -159 -339 -358 -420
-600 -39 -116 -44 -137 -59 -238 -11 -81 -8 -345 6 -415 35 -174 103 -347 195
-488 51 -79 154 -202 168 -202 6 0 29 18 51 40 l40 39 -61 69 c-33 38 -61 72
-61 76 0 5 -10 20 -23 36 -59 70 -152 290 -178 422 -75 386 33 768 299 1049
368 390 946 486 1418 235 516 -275 757 -894 561 -1441 -46 -128 -138 -291
-209 -367 -16 -18 -39 -43 -50 -55 l-20 -22 41 -41 c24 -24 47 -40 55 -37 8 3
37 33 65 67 155 185 253 397 295 635 20 114 16 367 -8 474 -59 267 -177 484
-365 671 -174 173 -410 303 -633 349 -29 6 -64 14 -78 17 -41 10 -351 12 -400
3z"/>
<path d="M2528 3455 c-2 -1 -35 -5 -73 -8 -155 -14 -389 -122 -489 -226 l-28
-29 42 -43 41 -42 27 22 c177 141 332 199 527 199 339 -1 641 -230 736 -560
26 -93 33 -266 14 -358 -65 -305 -300 -540 -605 -605 -84 -17 -255 -13 -340 9
-92 24 -215 86 -288 145 -34 28 -65 51 -70 51 -4 0 -25 -19 -46 -41 l-39 -42
39 -36 c148 -137 371 -222 584 -223 112 -1 149 3 245 28 72 19 205 80 272 125
68 46 212 195 251 262 162 271 180 580 51 855 -67 145 -176 274 -304 362 -73
51 -205 108 -296 129 -70 17 -241 34 -251 26z"/>
<path d="M2197 2858 c-67 -83 -97 -164 -103 -273 -8 -172 72 -331 213 -424
307 -203 724 8 739 375 5 125 -29 230 -103 322 l-35 43 -44 -45 -44 -46 35
-46 c47 -61 68 -138 63 -228 -6 -126 -80 -236 -198 -294 -48 -24 -67 -27 -150
-27 -84 0 -102 3 -151 28 -193 94 -262 345 -141 513 15 21 31 44 34 49 4 6
-13 30 -37 53 l-43 43 -35 -43z"/>
</g>
</svg>
